# xmcd CD database file
#
# Track frame offsets:
#	150
#	36517
#	61243
#	78483
#	98664
#	133318
#	162212
#	195322
#	224609
#	249670
#	291404
#
# Disc length: 4063 seconds
#
# Revision: 0
# Processed by: cddbd v1.5.2PL0 Copyright (c) Steve Scherf et al.
# Submitted via: CDex 1.70beta2
#
DISCID=a50fdd0b
DTITLE=Thomas Faulhammer - My Soul
DYEAR=2003
DGENRE=Jazz
TTITLE0=Don't Go
TTITLE1=Late At Night
TTITLE2=Make Love 2U
TTITLE3=My Soul
TTITLE4=In A Sentimental Mood
TTITLE5=All My Loving
TTITLE6=My One And Only Love
TTITLE7=Chill Out
TTITLE8=Mum's Lullaby
TTITLE9=Icarus
TTITLE10=I Miss You
EXTD=YEAR: 2003
EXTT0=
EXTT1=
EXTT2=
EXTT3=
EXTT4=
EXTT5=
EXTT6=
EXTT7=
EXTT8=
EXTT9=
EXTT10=
PLAYORDER=
